<?xml version="1.0" encoding="UTF-8"?>
<svg xmlns="http://www.w3.org/2000/svg" xmlns:xlink="http://www.w3.org/1999/xlink" width="48pt" height="48pt" viewBox="0 0 48 48" version="1.1">
<g id="surface1">
<path style=" stroke:none;fill-rule:nonzero;fill:rgb(100%,100%,100%);fill-opacity:1;" d="M -0.5 0 L 47.5 0 L 47.5 48 L -0.5 48 Z M -0.5 0 "/>
<path style=" stroke:none;fill-rule:nonzero;fill:rgb(34.901961%,23.921569%,52.156863%);fill-opacity:1;" d="M 46.316406 28.503906 C 46.300781 29.765625 45.269531 30.777344 44.007812 30.765625 L 30.300781 30.621094 L 25.683594 35.144531 L 25.875 16.867188 C 25.890625 15.605469 26.921875 14.59375 28.183594 14.609375 L 44.175781 14.777344 C 45.4375 14.789062 46.449219 15.820312 46.433594 17.082031 Z M 46.316406 28.503906 "/>
<path style=" stroke:none;fill-rule:nonzero;fill:rgb(35.294118%,24.313725%,52.156863%);fill-opacity:1;" d="M 3.238281 14.558594 L 1.761719 18.316406 L 1.761719 33.347656 L 7.167969 33.347656 L 7.167969 36.167969 L 10.121094 36.167969 L 13.070312 33.347656 L 17.496094 33.347656 L 23.394531 27.710938 L 23.394531 14.558594 Z M 5.203125 16.4375 L 21.429688 16.4375 L 21.429688 26.769531 L 17.984375 30.058594 L 12.578125 30.058594 L 9.628906 32.875 L 9.628906 30.058594 L 5.203125 30.058594 Z M 10.613281 25.832031 L 12.578125 25.832031 L 12.578125 20.195312 L 10.613281 20.195312 Z M 16.019531 25.832031 L 17.984375 25.832031 L 17.984375 20.195312 L 16.019531 20.195312 Z M 16.019531 25.832031 "/>
</g>
</svg>
